{
  "accessors": [
    {
      "bufferView": 2,
      "componentType": 5126,
      "count": 7740,
      "max": [
        0.8006539940834045,
        0.40639999508857727,
        1.096708059310913
      ],
      "min": [
        -0.8001000285148621,
        -0.36836299300193787,
        0.9809359908103943
      ],
      "type": "VEC3"
    },
    {
      "bufferView": 2,
      "byteOffset": 92880,
      "componentType": 5126,
      "count": 7740,
      "max": [
        1.0,
        1.0,
        1.0
      ],
      "min": [
        -1.0,
        -1.0,
        -1.0
      ],
      "type": "VEC3"
    },
    {
      "bufferView": 3,
      "componentType": 5126,
      "count": 7740,
      "max": [
        1.0,
        1.0,
        1.0,
        1.0
      ],
      "min": [
        -1.0,
        -1.0,
        -1.0,
        -1.0
      ],
      "type": "VEC4"
    },
    {
      "bufferView": 1,
      "componentType": 5126,
      "count": 7740,
      "max": [
        0.9874129891395569,
        0.9955719709396362
      ],
      "min": [
        0.0044280001893639565,
        0.0044280001893639565
      ],
      "type": "VEC2"
    },
    {
      "bufferView": 0,
      "componentType": 5125,
      "count": 36054,
      "type": "SCALAR"
    },
    {
      "bufferView": 2,
      "byteOffset": 185760,
      "componentType": 5126,
      "count": 1393,
      "max": [
        0.6602090001106262,
        0.3467099964618683,
        1.0751839876174927
      ],
      "min": [
        -0.659654974937439,
        -0.3467099964618683,
        -0.0010590000310912728
      ],
      "type": "VEC3"
    },
    {
      "bufferView": 2,
      "byteOffset": 202476,
      "componentType": 5126,
      "count": 1393,
      "max": [
        1.0,
        1.0,
        1.0
      ],
      "min": [
        -1.0,
        -1.0,
        -1.0
      ],
      "type": "VEC3"
    },
    {
      "bufferView": 3,
      "byteOffset": 123840,
      "componentType": 5126,
      "count": 1393,
      "max": [
        1.0,
        1.0,
        1.0,
        1.0
      ],
      "min": [
        -1.0,
        -1.0,
        -1.0,
        -1.0
      ],
      "type": "VEC4"
    },
    {
      "bufferView": 1,
      "byteOffset": 61920,
      "componentType": 5126,
      "count": 1393,
      "max": [
        0.9709240198135376,
        0.9963160157203674
      ],
      "min": [
        0.00610999995842576,
        0.003684000112116337
      ],
      "type": "VEC2"
    },
    {
      "bufferView": 0,
      "byteOffset": 144216,
      "componentType": 5125,
      "count": 3540,
      "type": "SCALAR"
    }
  ],
  "asset": {
    "extras": {
      "author": "Ryan_Nein (https://sketchfab.com/Ryan_Nein)",
      "license": "CC-BY-4.0 (http://creativecommons.org/licenses/by/4.0/)",
      "source": "https://sketchfab.com/3d-models/standing-desk-65a7f4b06a5f4954a0d43eb8812dd165",
      "title": "Standing Desk"
    },
    "generator": "Sketchfab-13.13.0",
    "version": "2.0"
  },
  "bufferViews": [
    {
      "buffer": 0,
      "byteLength": 158376,
      "name": "floatBufferViews",
      "target": 34963
    },
    {
      "buffer": 0,
      "byteLength": 73064,
      "byteOffset": 158376,
      "byteStride": 8,
      "name": "floatBufferViews",
      "target": 34962
    },
    {
      "buffer": 0,
      "byteLength": 219192,
      "byteOffset": 231440,
      "byteStride": 12,
      "name": "floatBufferViews",
      "target": 34962
    },
    {
      "buffer": 0,
      "byteLength": 146128,
      "byteOffset": 450632,
      "byteStride": 16,
      "name": "floatBufferViews",
      "target": 34962
    }
  ],
  "buffers": [
    {
      "byteLength": 596760,
      "uri": "scene.bin"
    }
  ],
  "images": [
    {
      "uri": "textures/Desk_Top_Material_baseColor.png"
    },
    {
      "uri": "textures/Desk_Top_Material_metallicRoughness.png"
    },
    {
      "uri": "textures/Desk_Top_Material_normal.png"
    },
    {
      "uri": "textures/Legs_Material_baseColor.png"
    },
    {
      "uri": "textures/Legs_Material_metallicRoughness.png"
    },
    {
      "uri": "textures/Legs_Material_normal.png"
    }
  ],
  "materials": [
    {
      "doubleSided": true,
      "name": "Desk_Top_Material",
      "normalTexture": {
        "index": 2
      },
      "pbrMetallicRoughness": {
        "baseColorTexture": {
          "index": 0
        },
        "metallicFactor": 0.0,
        "metallicRoughnessTexture": {
          "index": 1
        },
        "roughnessFactor": 0.6
      }
    },
    {
      "doubleSided": true,
      "name": "Legs_Material",
      "normalTexture": {
        "index": 5
      },
      "pbrMetallicRoughness": {
        "baseColorTexture": {
          "index": 3
        },
        "metallicRoughnessTexture": {
          "index": 4
        },
        "roughnessFactor": 0.6
      }
    }
  ],
  "meshes": [
    {
      "name": "Object_0",
      "primitives": [
        {
          "attributes": {
            "NORMAL": 1,
            "POSITION": 0,
            "TANGENT": 2,
            "TEXCOORD_0": 3
          },
          "indices": 4,
          "material": 0,
          "mode": 4
        }
      ]
    },
    {
      "name": "Object_1",
      "primitives": [
        {
          "attributes": {
            "NORMAL": 6,
            "POSITION": 5,
            "TANGENT": 7,
            "TEXCOORD_0": 8
          },
          "indices": 9,
          "material": 1,
          "mode": 4
        }
      ]
    }
  ],
  "nodes": [
    {
      "children": [
        1
      ],
      "matrix": [
        1.0,
        0.0,
        0.0,
        0.0,
        0.0,
        2.220446049250313e-16,
        -1.0,
        0.0,
        0.0,
        1.0,
        2.220446049250313e-16,
        0.0,
        0.0,
        0.0,
        0.0,
        1.0
      ],
      "name": "Sketchfab_model"
    },
    {
      "children": [
        2,
        3
      ],
      "name": "StandDesk.obj.cleaner.materialmerger.gles"
    },
    {
      "mesh": 0,
      "name": "Object_2"
    },
    {
      "mesh": 1,
      "name": "Object_3"
    }
  ],
  "samplers": [
    {
      "magFilter": 9729,
      "minFilter": 9987,
      "wrapS": 10497,
      "wrapT": 10497
    }
  ],
  "scene": 0,
  "scenes": [
    {
      "name": "Sketchfab_Scene",
      "nodes": [
        0
      ]
    }
  ],
  "textures": [
    {
      "sampler": 0,
      "source": 0
    },
    {
      "sampler": 0,
      "source": 1
    },
    {
      "sampler": 0,
      "source": 2
    },
    {
      "sampler": 0,
      "source": 3
    },
    {
      "sampler": 0,
      "source": 4
    },
    {
      "sampler": 0,
      "source": 5
    }
  ]
}
